<svg width="119" height="119" viewBox="0 0 119 119" fill="none" xmlns="http://www.w3.org/2000/svg">
<path d="M59.5 43.3857C55.2262 43.3857 51.1274 45.0835 48.1053 48.1056C45.0832 51.1277 43.3854 55.2265 43.3854 59.5003C43.3854 63.7742 45.0832 67.873 48.1053 70.8951C51.1274 73.9171 55.2262 75.6149 59.5 75.6149C63.7739 75.6149 67.8727 73.9171 70.8947 70.8951C73.9168 67.873 75.6146 63.7742 75.6146 59.5003C75.6146 55.2265 73.9168 51.1277 70.8947 48.1056C67.8727 45.0835 63.7739 43.3857 59.5 43.3857Z" fill="black"/>
<path fill-rule="evenodd" clip-rule="evenodd" d="M33.5679 15.2816C50.8032 13.3723 68.1967 13.3723 85.4321 15.2816C94.8479 16.3328 102.439 23.7455 103.545 33.1961C105.587 50.6725 105.587 68.3275 103.545 85.804C102.439 95.2546 94.8479 102.667 85.437 103.723C68.2 105.633 50.8049 105.633 33.5679 103.723C24.152 102.667 16.5608 95.2546 15.4551 85.8089C13.4122 68.3308 13.4122 50.6742 15.4551 33.1961C16.5608 23.7455 24.152 16.3328 33.5679 15.2816ZM84.2916 29.75C82.9766 29.75 81.7154 30.2724 80.7856 31.2023C79.8557 32.1321 79.3333 33.3933 79.3333 34.7083C79.3333 36.0234 79.8557 37.2845 80.7856 38.2144C81.7154 39.1443 82.9766 39.6667 84.2916 39.6667C85.6067 39.6667 86.8679 39.1443 87.7977 38.2144C88.7276 37.2845 89.25 36.0234 89.25 34.7083C89.25 33.3933 88.7276 32.1321 87.7977 31.2023C86.8679 30.2724 85.6067 29.75 84.2916 29.75ZM35.9479 59.5C35.9479 53.2536 38.4293 47.263 42.8461 42.8462C47.263 38.4293 53.2536 35.9479 59.5 35.9479C65.7464 35.9479 71.7369 38.4293 76.1538 42.8462C80.5707 47.263 83.0521 53.2536 83.0521 59.5C83.0521 65.7464 80.5707 71.737 76.1538 76.1538C71.7369 80.5707 65.7464 83.0521 59.5 83.0521C53.2536 83.0521 47.263 80.5707 42.8461 76.1538C38.4293 71.737 35.9479 65.7464 35.9479 59.5Z" fill="black"/>
</svg>
