<svg width="108" height="109" viewBox="0 0 108 109" fill="none" xmlns="http://www.w3.org/2000/svg">
<path fill-rule="evenodd" clip-rule="evenodd" d="M54 4.3457C25.8635 4.3457 3.04761 27.3677 3.04761 55.7699C3.04761 78.4912 17.647 97.7664 37.892 104.567C40.4375 105.044 41.3724 103.451 41.3724 102.093C41.3724 100.867 41.3252 96.816 41.3032 92.519C27.1282 95.6298 24.1371 86.4517 24.1371 86.4517C21.8194 80.5078 18.4798 78.9273 18.4798 78.9273C13.856 75.7356 18.8283 75.802 18.8283 75.802C23.9439 76.1639 26.6389 81.1013 26.6389 81.1013C31.1833 88.9612 38.5585 86.6892 41.4661 85.3761C41.9234 82.0525 43.2439 79.7831 44.701 78.4989C33.3838 77.2003 21.4861 72.79 21.4861 53.0857C21.4861 47.4714 23.4773 42.884 26.7367 39.2819C26.2069 37.9875 24.4628 32.7572 27.2295 25.6739C27.2295 25.6739 31.5073 24.2919 41.2442 30.9451C45.3094 29.8049 49.669 29.2318 54 29.2122C58.3284 29.2318 62.6906 29.8032 66.7634 30.9434C76.4885 24.2901 80.7612 25.6722 80.7612 25.6722C83.5346 32.7547 81.7906 37.9858 81.2616 39.2802C84.5285 42.8823 86.5055 47.4697 86.5055 53.084C86.5055 72.8352 74.5858 77.1833 63.2399 78.4572C65.0683 80.053 66.6967 83.1834 66.6967 87.9802C66.6967 94.8608 66.6377 100.399 66.6377 102.092C66.6377 103.461 67.5557 105.064 70.1376 104.559C90.3707 97.7519 104.953 78.4827 104.953 55.7699C104.952 27.3694 82.1391 4.3457 54 4.3457Z" fill="#181616"/>
<path d="M22.3458 78.1791C22.2336 78.4346 21.8354 78.5112 21.4725 78.3366C21.1013 78.1697 20.8946 77.8214 21.0144 77.5651C21.1241 77.3011 21.5232 77.2288 21.8919 77.405C22.2631 77.5728 22.4741 77.9245 22.345 78.1799L22.3458 78.1791ZM24.4096 80.503C24.1675 80.7304 23.6925 80.6248 23.3701 80.2646C23.036 79.9069 22.9736 79.4275 23.2208 79.1967C23.4722 78.9702 23.9329 79.0775 24.267 79.4351C24.5995 79.7979 24.6653 80.2731 24.4105 80.5039L24.4096 80.503ZM26.4195 83.4639C26.1073 83.6836 25.596 83.4784 25.2804 83.0211C24.9682 82.5629 24.9682 82.0137 25.2888 81.7948C25.6035 81.5751 26.1073 81.7735 26.4279 82.2266C26.7384 82.6907 26.7384 83.2408 26.4195 83.4639ZM29.1709 86.326C28.8925 86.6368 28.2968 86.5534 27.8614 86.1301C27.4168 85.7154 27.2927 85.1253 27.572 84.8153C27.8555 84.5036 28.4537 84.5905 28.8916 85.0112C29.3363 85.425 29.4705 86.016 29.1726 86.3251L29.1709 86.326ZM32.9678 87.9874C32.8438 88.3902 32.2717 88.5733 31.6937 88.4012C31.1175 88.225 30.7403 87.7541 30.8584 87.347C30.9766 86.9408 31.5528 86.7509 32.1342 86.934C32.7105 87.1094 33.0876 87.5778 32.9678 87.9874ZM37.1385 88.2948C37.1528 88.7189 36.6634 89.0697 36.0585 89.0782C35.4484 89.0927 34.9548 88.7487 34.9489 88.3314C34.9489 87.9031 35.4282 87.5565 36.0374 87.5446C36.6423 87.5335 37.1393 87.8741 37.1393 88.294L37.1385 88.2948ZM41.018 87.6289C41.0906 88.0419 40.6695 88.4668 40.068 88.5801C39.4773 88.6908 38.9289 88.4336 38.853 88.024C38.7804 87.5999 39.209 87.175 39.7996 87.0651C40.4021 86.9604 40.9421 87.2091 41.018 87.6289Z" fill="#181616"/>
</svg>
