<svg width="391" height="368" viewBox="0 0 391 368" fill="none" xmlns="http://www.w3.org/2000/svg">
<g clip-path="url(#clip0_30_21)">
<path d="M291.274 234.403L290.482 235.785L336.397 223.321C350.824 219.405 359.319 204.58 355.403 190.153L341.413 138.746C337.497 124.319 322.672 115.825 308.245 119.741L281.829 126.911C280.77 126.138 279.645 125.382 278.473 124.71L231.568 97.8337C216.031 88.9309 196.539 93.3379 186.225 107.454L186.058 107.358L157.261 157.613C151.958 166.868 155.159 178.66 164.414 183.963C173.669 189.267 185.461 186.066 190.764 176.811L211.882 139.957L278.888 178.352C297.398 188.959 303.8 212.542 293.193 231.053L291.274 234.403ZM217.604 161.037L204.166 184.49C194.615 201.157 173.403 206.915 156.735 197.365C140.067 187.814 134.309 166.602 143.86 149.934L172.32 100.266C155.798 94.2473 137.013 98.0027 124.127 110.59L103.394 130.752L55.1732 143.842C40.7464 147.758 32.2515 162.583 36.1677 177.01L50.1335 228.459C54.0497 242.886 68.8748 251.381 83.3016 247.464L108.137 240.723C108.514 240.939 108.867 241.197 109.243 241.413L176.25 279.808C187.348 286.167 201.511 282.322 207.87 271.224C209.214 268.879 210.091 266.378 210.579 263.876L211.71 264.524C222.807 270.883 236.971 267.038 243.33 255.94C246.402 250.58 247.091 244.522 245.721 238.953C257.684 243.026 271.231 238.217 277.8 226.85L277.896 226.682C285.246 213.76 280.775 197.291 267.835 189.876L217.58 161.079L217.604 161.037Z" fill="black"/>
</g>
<defs>
<clipPath id="clip0_30_21">
<rect width="308.908" height="247.126" fill="white" transform="translate(122.965) rotate(29.813)"/>
</clipPath>
</defs>
</svg>
