<svg width="122" height="122" viewBox="0 0 122 122" fill="none" xmlns="http://www.w3.org/2000/svg">
<path d="M61 10.167C32.9908 10.167 10.1667 32.9912 10.1667 61.0003C10.1667 89.0095 32.9908 111.834 61 111.834C89.0092 111.834 111.833 89.0095 111.833 61.0003C111.833 32.9912 89.0092 10.167 61 10.167ZM15.3008 61.0003C15.3008 54.392 16.7242 48.0887 19.2658 42.3953L41.0733 102.124C25.8233 94.7028 15.3008 79.097 15.3008 61.0003ZM61 106.699C56.5267 106.699 52.2058 106.039 48.0883 104.819L61.8133 64.9653L75.8433 103.446C75.945 103.649 76.0467 103.904 76.1483 104.056C71.4208 105.784 66.3375 106.699 61 106.699ZM67.3033 39.5487C70.0483 39.3962 72.5392 39.0912 72.5392 39.0912C74.9792 38.7862 74.725 35.177 72.2342 35.3295C72.2342 35.3295 64.8125 35.8887 60.0342 35.8887C55.5608 35.8887 47.9867 35.3295 47.9867 35.3295C45.5467 35.2278 45.2417 38.9895 47.7325 39.142C47.7325 39.142 50.0708 39.447 52.5108 39.5995L59.6275 59.1195L49.6133 89.1112L32.9908 39.5487C35.7358 39.447 38.2267 39.142 38.2267 39.142C40.6667 38.837 40.4125 35.2278 37.9217 35.3803C37.9217 35.3803 30.5 35.9395 25.7217 35.9395C24.8575 35.9395 23.8408 35.9395 22.7733 35.8887C31.0083 23.4853 45.0383 15.3012 61 15.3012C72.895 15.3012 83.7225 19.8253 91.8558 27.2978C91.6525 27.2978 91.4492 27.247 91.2458 27.247C86.7725 27.247 83.57 31.1612 83.57 35.3803C83.57 39.142 85.7558 42.3445 88.0433 46.1062C89.7717 49.1562 91.805 53.0703 91.805 58.7128C91.805 62.627 90.28 67.1512 88.3483 73.5053L83.7733 88.7553L67.3033 39.5487ZM101.107 39.0912C106.815 49.5412 108.218 61.806 105.018 73.275C101.819 84.7439 94.2691 94.5112 83.9767 100.498L97.9558 60.1362C100.548 53.6295 101.413 48.3937 101.413 43.7678C101.413 42.0903 101.311 40.5145 101.107 39.0912Z" fill="black"/>
</svg>
