<svg width="371" height="179" viewBox="0 0 371 179" fill="none" xmlns="http://www.w3.org/2000/svg">
<g filter="url(#filter0_d_30_19)">
<path d="M2.75 56V2H14.3V56H2.75ZM8.15 56V47.15H40.25V56H8.15ZM62.9551 56.75C58.7051 56.75 55.0051 55.925 51.8551 54.275C48.7051 52.575 46.2551 50.225 44.5051 47.225C42.8051 44.225 41.9551 40.775 41.9551 36.875C41.9551 32.925 42.8051 29.475 44.5051 26.525C46.2551 23.525 48.6801 21.2 51.7801 19.55C54.8801 17.85 58.4801 17 62.5801 17C66.5301 17 69.9551 17.8 72.8551 19.4C75.7551 21 78.0051 23.225 79.6051 26.075C81.2051 28.925 82.0051 32.275 82.0051 36.125C82.0051 36.925 81.9801 37.675 81.9301 38.375C81.8801 39.025 81.8051 39.65 81.7051 40.25H48.5551V32.825H72.6301L70.6801 34.175C70.6801 31.075 69.9301 28.8 68.4301 27.35C66.9801 25.85 64.9801 25.1 62.4301 25.1C59.4801 25.1 57.1801 26.1 55.5301 28.1C53.9301 30.1 53.1301 33.1 53.1301 37.1C53.1301 41 53.9301 43.9 55.5301 45.8C57.1801 47.7 59.6301 48.65 62.8801 48.65C64.6801 48.65 66.2301 48.35 67.5301 47.75C68.8301 47.15 69.8051 46.175 70.4551 44.825H81.0301C79.7801 48.525 77.6301 51.45 74.5801 53.6C71.5801 55.7 67.7051 56.75 62.9551 56.75ZM105.146 56.825C100.246 56.825 96.5961 55.65 94.1961 53.3C91.8461 50.9 90.6711 47.275 90.6711 42.425V9.2L101.921 5V42.8C101.921 44.5 102.396 45.775 103.346 46.625C104.296 47.475 105.771 47.9 107.771 47.9C108.521 47.9 109.221 47.825 109.871 47.675C110.521 47.525 111.171 47.35 111.821 47.15V55.7C111.171 56.05 110.246 56.325 109.046 56.525C107.896 56.725 106.596 56.825 105.146 56.825ZM83.5461 26.3V17.75H111.821V26.3H83.5461ZM116.363 23.975V18.5C118.863 18.2 120.488 17.4 121.238 16.1C122.038 14.8 122.438 13.075 122.438 10.925L126.863 11.825H116.513V0.499999H128.888V8.9C128.888 12.65 127.863 15.925 125.813 18.725C123.813 21.525 120.663 23.275 116.363 23.975ZM146.831 56.75C141.231 56.75 136.781 55.625 133.481 53.375C130.181 51.125 128.381 48.025 128.081 44.075H138.131C138.381 45.775 139.231 47.075 140.681 47.975C142.181 48.825 144.231 49.25 146.831 49.25C149.181 49.25 150.881 48.925 151.931 48.275C153.031 47.575 153.581 46.6 153.581 45.35C153.581 44.4 153.256 43.675 152.606 43.175C152.006 42.625 150.881 42.175 149.231 41.825L143.081 40.55C138.531 39.6 135.181 38.175 133.031 36.275C130.881 34.325 129.806 31.825 129.806 28.775C129.806 25.075 131.231 22.2 134.081 20.15C136.931 18.05 140.906 17 146.006 17C151.056 17 155.081 18.025 158.081 20.075C161.081 22.075 162.731 24.875 163.031 28.475H152.981C152.781 27.175 152.081 26.2 150.881 25.55C149.681 24.85 147.981 24.5 145.781 24.5C143.781 24.5 142.281 24.8 141.281 25.4C140.331 25.95 139.856 26.75 139.856 27.8C139.856 28.7 140.256 29.425 141.056 29.975C141.856 30.475 143.181 30.925 145.031 31.325L151.931 32.75C155.781 33.55 158.681 35.05 160.631 37.25C162.631 39.4 163.631 41.95 163.631 44.9C163.631 48.65 162.156 51.575 159.206 53.675C156.306 55.725 152.181 56.75 146.831 56.75ZM191.406 56L179.706 17.75H191.556L197.406 44.45H197.106L204.456 17.75H214.956L222.381 44.45H222.081L227.856 17.75H239.406L227.706 56H216.906L209.406 29.375H209.706L202.206 56H191.406ZM261.811 56.75C257.611 56.75 253.911 55.925 250.711 54.275C247.561 52.575 245.086 50.225 243.286 47.225C241.536 44.175 240.661 40.675 240.661 36.725C240.661 32.775 241.536 29.325 243.286 26.375C245.086 23.425 247.561 21.125 250.711 19.475C253.911 17.825 257.611 17 261.811 17C266.061 17 269.761 17.825 272.911 19.475C276.111 21.125 278.586 23.425 280.336 26.375C282.086 29.325 282.961 32.775 282.961 36.725C282.961 40.675 282.061 44.175 280.261 47.225C278.511 50.225 276.036 52.575 272.836 54.275C269.686 55.925 266.011 56.75 261.811 56.75ZM261.811 47.9C263.561 47.9 265.136 47.45 266.536 46.55C267.986 45.65 269.136 44.375 269.986 42.725C270.836 41.025 271.261 39 271.261 36.65C271.261 33.2 270.336 30.55 268.486 28.7C266.686 26.8 264.461 25.85 261.811 25.85C259.161 25.85 256.911 26.8 255.061 28.7C253.261 30.6 252.361 33.25 252.361 36.65C252.361 39 252.786 41.025 253.636 42.725C254.486 44.375 255.611 45.65 257.011 46.55C258.461 47.45 260.061 47.9 261.811 47.9ZM288.925 56V17.75H299.95V26.75H300.175V56H288.925ZM300.175 36.05L299.2 26.975C300.1 23.725 301.575 21.25 303.625 19.55C305.675 17.85 308.225 17 311.275 17C312.225 17 312.925 17.1 313.375 17.3V27.8C313.125 27.7 312.775 27.65 312.325 27.65C311.875 27.6 311.325 27.575 310.675 27.575C307.075 27.575 304.425 28.225 302.725 29.525C301.025 30.775 300.175 32.95 300.175 36.05ZM318.808 56V2H330.058V56H318.808ZM343.333 56L327.433 36.125L342.958 17.75H355.933L337.708 37.85L338.233 34.325L356.683 56H343.333ZM21.65 148.825C16.75 148.825 13.1 147.65 10.7 145.3C8.35 142.9 7.175 139.275 7.175 134.425V101.2L18.425 97V134.8C18.425 136.5 18.9 137.775 19.85 138.625C20.8 139.475 22.275 139.9 24.275 139.9C25.025 139.9 25.725 139.825 26.375 139.675C27.025 139.525 27.675 139.35 28.325 139.15V147.7C27.675 148.05 26.75 148.325 25.55 148.525C24.4 148.725 23.1 148.825 21.65 148.825ZM0.05 118.3V109.75H28.325V118.3H0.05ZM51.899 148.75C47.699 148.75 43.999 147.925 40.799 146.275C37.649 144.575 35.174 142.225 33.374 139.225C31.624 136.175 30.749 132.675 30.749 128.725C30.749 124.775 31.624 121.325 33.374 118.375C35.174 115.425 37.649 113.125 40.799 111.475C43.999 109.825 47.699 109 51.899 109C56.149 109 59.849 109.825 62.999 111.475C66.199 113.125 68.674 115.425 70.424 118.375C72.174 121.325 73.049 124.775 73.049 128.725C73.049 132.675 72.149 136.175 70.349 139.225C68.599 142.225 66.124 144.575 62.924 146.275C59.774 147.925 56.099 148.75 51.899 148.75ZM51.899 139.9C53.649 139.9 55.224 139.45 56.624 138.55C58.074 137.65 59.224 136.375 60.074 134.725C60.924 133.025 61.349 131 61.349 128.65C61.349 125.2 60.424 122.55 58.574 120.7C56.774 118.8 54.549 117.85 51.899 117.85C49.249 117.85 46.999 118.8 45.149 120.7C43.349 122.6 42.449 125.25 42.449 128.65C42.449 131 42.874 133.025 43.724 134.725C44.574 136.375 45.699 137.65 47.099 138.55C48.549 139.45 50.149 139.9 51.899 139.9ZM97.0039 164.125C91.7039 164.125 87.3789 163 84.0289 160.75C80.7289 158.5 78.7789 155.45 78.1789 151.6H88.8289C89.2289 152.55 90.0789 153.275 91.3789 153.775C92.7289 154.275 94.4289 154.525 96.4789 154.525C99.8789 154.525 102.354 153.875 103.904 152.575C105.454 151.275 106.229 149.25 106.229 146.5V138.175L106.829 138.325C106.329 141.125 104.879 143.35 102.479 145C100.079 146.6 97.1039 147.4 93.5539 147.4C90.1539 147.4 87.1789 146.625 84.6289 145.075C82.1289 143.475 80.1789 141.25 78.7789 138.4C77.3789 135.55 76.6789 132.2 76.6789 128.35C76.6789 124.45 77.4039 121.05 78.8539 118.15C80.3039 115.25 82.3289 113 84.9289 111.4C87.5789 109.8 90.6539 109 94.1539 109C97.7539 109 100.679 109.85 102.929 111.55C105.229 113.25 106.579 115.575 106.979 118.525L106.454 118.6V109.75H117.479V146.35C117.479 151.85 115.654 156.175 112.004 159.325C108.354 162.525 103.354 164.125 97.0039 164.125ZM97.4539 138.775C100.104 138.775 102.254 137.875 103.904 136.075C105.554 134.225 106.379 131.6 106.379 128.2C106.379 124.8 105.529 122.2 103.829 120.4C102.179 118.55 100.004 117.625 97.3039 117.625C94.7039 117.625 92.5539 118.55 90.8539 120.4C89.2039 122.25 88.3789 124.875 88.3789 128.275C88.3789 131.675 89.2039 134.275 90.8539 136.075C92.5539 137.875 94.7539 138.775 97.4539 138.775ZM144.474 148.75C140.224 148.75 136.524 147.925 133.374 146.275C130.224 144.575 127.774 142.225 126.024 139.225C124.324 136.225 123.474 132.775 123.474 128.875C123.474 124.925 124.324 121.475 126.024 118.525C127.774 115.525 130.199 113.2 133.299 111.55C136.399 109.85 139.999 109 144.099 109C148.049 109 151.474 109.8 154.374 111.4C157.274 113 159.524 115.225 161.124 118.075C162.724 120.925 163.524 124.275 163.524 128.125C163.524 128.925 163.499 129.675 163.449 130.375C163.399 131.025 163.324 131.65 163.224 132.25H130.074V124.825H154.149L152.199 126.175C152.199 123.075 151.449 120.8 149.949 119.35C148.499 117.85 146.499 117.1 143.949 117.1C140.999 117.1 138.699 118.1 137.049 120.1C135.449 122.1 134.649 125.1 134.649 129.1C134.649 133 135.449 135.9 137.049 137.8C138.699 139.7 141.149 140.65 144.399 140.65C146.199 140.65 147.749 140.35 149.049 139.75C150.349 139.15 151.324 138.175 151.974 136.825H162.549C161.299 140.525 159.149 143.45 156.099 145.6C153.099 147.7 149.224 148.75 144.474 148.75ZM186.665 148.825C181.765 148.825 178.115 147.65 175.715 145.3C173.365 142.9 172.19 139.275 172.19 134.425V101.2L183.44 97V134.8C183.44 136.5 183.915 137.775 184.865 138.625C185.815 139.475 187.29 139.9 189.29 139.9C190.04 139.9 190.74 139.825 191.39 139.675C192.04 139.525 192.69 139.35 193.34 139.15V147.7C192.69 148.05 191.765 148.325 190.565 148.525C189.415 148.725 188.115 148.825 186.665 148.825ZM165.065 118.3V109.75H193.34V118.3H165.065ZM200.082 148V94H211.332V148H200.082ZM226.707 148V124.3C226.707 122.2 226.157 120.625 225.057 119.575C224.007 118.525 222.457 118 220.407 118C218.657 118 217.082 118.4 215.682 119.2C214.332 120 213.257 121.1 212.457 122.5C211.707 123.9 211.332 125.55 211.332 127.45L210.357 118.225C211.607 115.425 213.432 113.2 215.832 111.55C218.282 109.85 221.282 109 224.832 109C229.082 109 232.332 110.2 234.582 112.6C236.832 114.95 237.957 118.125 237.957 122.125V148H226.707ZM264.518 148.75C260.268 148.75 256.568 147.925 253.418 146.275C250.268 144.575 247.818 142.225 246.068 139.225C244.368 136.225 243.518 132.775 243.518 128.875C243.518 124.925 244.368 121.475 246.068 118.525C247.818 115.525 250.243 113.2 253.343 111.55C256.443 109.85 260.043 109 264.143 109C268.093 109 271.518 109.8 274.418 111.4C277.318 113 279.568 115.225 281.168 118.075C282.768 120.925 283.568 124.275 283.568 128.125C283.568 128.925 283.543 129.675 283.493 130.375C283.443 131.025 283.368 131.65 283.268 132.25H250.118V124.825H274.193L272.243 126.175C272.243 123.075 271.493 120.8 269.993 119.35C268.543 117.85 266.543 117.1 263.993 117.1C261.043 117.1 258.743 118.1 257.093 120.1C255.493 122.1 254.693 125.1 254.693 129.1C254.693 133 255.493 135.9 257.093 137.8C258.743 139.7 261.193 140.65 264.443 140.65C266.243 140.65 267.793 140.35 269.093 139.75C270.393 139.15 271.368 138.175 272.018 136.825H282.593C281.343 140.525 279.193 143.45 276.143 145.6C273.143 147.7 269.268 148.75 264.518 148.75ZM289.584 148V109.75H300.609V118.75H300.834V148H289.584ZM300.834 128.05L299.859 118.975C300.759 115.725 302.234 113.25 304.284 111.55C306.334 109.85 308.884 109 311.934 109C312.884 109 313.584 109.1 314.034 109.3V119.8C313.784 119.7 313.434 119.65 312.984 119.65C312.534 119.6 311.984 119.575 311.334 119.575C307.734 119.575 305.084 120.225 303.384 121.525C301.684 122.775 300.834 124.95 300.834 128.05Z" fill="#282323"/>
</g>
<defs>
<filter id="filter0_d_30_19" x="0.0499878" y="0.5" width="370.633" height="177.625" filterUnits="userSpaceOnUse" color-interpolation-filters="sRGB">
<feFlood flood-opacity="0" result="BackgroundImageFix"/>
<feColorMatrix in="SourceAlpha" type="matrix" values="0 0 0 0 0 0 0 0 0 0 0 0 0 0 0 0 0 0 127 0" result="hardAlpha"/>
<feOffset dx="10" dy="10"/>
<feGaussianBlur stdDeviation="2"/>
<feComposite in2="hardAlpha" operator="out"/>
<feColorMatrix type="matrix" values="0 0 0 0 0 0 0 0 0 0 0 0 0 0 0 0 0 0 0.25 0"/>
<feBlend mode="normal" in2="BackgroundImageFix" result="effect1_dropShadow_30_19"/>
<feBlend mode="normal" in="SourceGraphic" in2="effect1_dropShadow_30_19" result="shape"/>
</filter>
</defs>
</svg>
