<svg width="132" height="132" viewBox="0 0 132 132" fill="none" xmlns="http://www.w3.org/2000/svg">
<path d="M66 55.6051C71.665 55.6051 76.285 60.2251 76.285 66.0001C76.285 71.5001 71.665 76.1751 66 76.1751C60.335 76.1751 55.715 71.5001 55.715 66.0001C55.715 60.2251 60.335 55.6051 66 55.6051ZM40.535 110C44 112.09 51.59 108.9 60.335 100.65C57.475 97.4051 54.67 93.8851 52.03 90.2001C47.5982 89.7729 43.1921 89.112 38.83 88.2201C36.025 99.9901 37.07 108.075 40.535 110ZM44.44 78.4301L42.845 75.6251C42.24 77.2201 41.635 78.8151 41.25 80.3551C42.735 80.6851 44.385 80.9601 46.09 81.2351L44.44 78.4301ZM80.41 74.2501L84.865 66.0001L80.41 57.7501C78.76 54.8351 77 52.2501 75.405 49.6651C72.435 49.5001 69.3 49.5001 66 49.5001C62.7 49.5001 59.565 49.5001 56.595 49.6651C55 52.2501 53.24 54.8351 51.59 57.7501L47.135 66.0001L51.59 74.2501C53.24 77.1651 55 79.7501 56.595 82.3351C59.565 82.5001 62.7 82.5001 66 82.5001C69.3 82.5001 72.435 82.5001 75.405 82.3351C77 79.7501 78.76 77.1651 80.41 74.2501ZM66 37.2901C64.955 38.5001 63.855 39.7651 62.755 41.2501H69.245C68.145 39.7651 67.045 38.5001 66 37.2901ZM66 94.7101C67.045 93.5001 68.145 92.2351 69.245 90.7501H62.755C63.855 92.2351 64.955 93.5001 66 94.7101ZM91.41 22.0001C88 19.9101 80.41 23.1001 71.665 31.3501C74.525 34.5951 77.33 38.1151 79.97 41.8001C84.48 42.2401 88.935 42.9001 93.17 43.7801C95.975 32.0101 94.93 23.9251 91.41 22.0001ZM87.56 53.5701L89.155 56.3751C89.76 54.7801 90.365 53.1851 90.75 51.6451C89.265 51.3151 87.615 51.0401 85.91 50.7651L87.56 53.5701ZM95.535 14.7951C103.62 19.4151 104.5 31.5701 101.09 45.7601C115.06 49.8851 125.125 56.7051 125.125 66.0001C125.125 75.2951 115.06 82.1151 101.09 86.2401C104.5 100.43 103.62 112.585 95.535 117.205C87.505 121.825 76.56 116.545 66 106.48C55.44 116.545 44.495 121.825 36.41 117.205C28.38 112.585 27.5 100.43 30.91 86.2401C16.94 82.1151 6.875 75.2951 6.875 66.0001C6.875 56.7051 16.94 49.8851 30.91 45.7601C27.5 31.5701 28.38 19.4151 36.41 14.7951C44.495 10.1751 55.44 15.4551 66 25.5201C76.56 15.4551 87.505 10.1751 95.535 14.7951ZM93.94 66.0001C95.81 70.1251 97.46 74.2501 98.835 78.4301C110.385 74.9651 116.875 70.0151 116.875 66.0001C116.875 61.9851 110.385 57.0351 98.835 53.5701C97.46 57.7501 95.81 61.8751 93.94 66.0001ZM38.06 66.0001C36.19 61.8751 34.54 57.7501 33.165 53.5701C21.615 57.0351 15.125 61.9851 15.125 66.0001C15.125 70.0151 21.615 74.9651 33.165 78.4301C34.54 74.2501 36.19 70.1251 38.06 66.0001ZM87.56 78.4301L85.91 81.2351C87.615 80.9601 89.265 80.6851 90.75 80.3551C90.365 78.8151 89.76 77.2201 89.155 75.6251L87.56 78.4301ZM71.665 100.65C80.41 108.9 88 112.09 91.41 110C94.93 108.075 95.975 99.9901 93.17 88.2201C88.935 89.1001 84.48 89.7601 79.97 90.2001C77.33 93.8851 74.525 97.4051 71.665 100.65ZM44.44 53.5701L46.09 50.7651C44.385 51.0401 42.735 51.3151 41.25 51.6451C41.635 53.1851 42.24 54.7801 42.845 56.3751L44.44 53.5701ZM60.335 31.3501C51.59 23.1001 44 19.9101 40.535 22.0001C37.07 23.9251 36.025 32.0101 38.83 43.7801C43.1921 42.8883 47.5982 42.2274 52.03 41.8001C54.67 38.1151 57.475 34.5951 60.335 31.3501Z" fill="black"/>
</svg>
