<svg width="135" height="135" viewBox="0 0 135 135" fill="none" xmlns="http://www.w3.org/2000/svg">
<path d="M106.875 16.875C109.859 16.875 112.72 18.0603 114.83 20.17C116.94 22.2798 118.125 25.1413 118.125 28.125V106.875C118.125 109.859 116.94 112.72 114.83 114.83C112.72 116.94 109.859 118.125 106.875 118.125H28.125C25.1413 118.125 22.2798 116.94 20.17 114.83C18.0603 112.72 16.875 109.859 16.875 106.875V28.125C16.875 25.1413 18.0603 22.2798 20.17 20.17C22.2798 18.0603 25.1413 16.875 28.125 16.875H106.875ZM104.062 104.062V74.25C104.062 69.3866 102.131 64.7224 98.6916 61.2834C95.2526 57.8445 90.5884 55.9125 85.725 55.9125C80.9437 55.9125 75.375 58.8375 72.675 63.225V56.9813H56.9813V104.062H72.675V76.3312C72.675 72 76.1625 68.4562 80.4938 68.4562C82.5823 68.4562 84.5854 69.2859 86.0622 70.7628C87.5391 72.2396 88.3688 74.2427 88.3688 76.3312V104.062H104.062ZM38.7 48.15C41.2063 48.15 43.6099 47.1544 45.3822 45.3822C47.1544 43.6099 48.15 41.2063 48.15 38.7C48.15 33.4688 43.9313 29.1938 38.7 29.1938C36.1788 29.1938 33.7608 30.1953 31.9781 31.9781C30.1953 33.7608 29.1938 36.1788 29.1938 38.7C29.1938 43.9313 33.4688 48.15 38.7 48.15ZM46.5188 104.062V56.9813H30.9375V104.062H46.5188Z" fill="black"/>
</svg>
