<svg width="101" height="101" viewBox="0 0 101 101" fill="none" xmlns="http://www.w3.org/2000/svg">
<path opacity="0.45" fill-rule="evenodd" clip-rule="evenodd" d="M50.5 8.41663C60.5451 8.41663 70.1787 12.407 77.2817 19.51C84.3846 26.6129 88.375 36.2466 88.375 46.2916C88.375 59.228 81.3218 69.8162 73.8899 77.4123C70.1768 81.1664 66.1252 84.5699 61.7868 87.5796L59.994 88.8L59.1523 89.3597L57.5658 90.3697L56.1518 91.2324L54.4011 92.2508C53.2128 92.9291 51.8682 93.2858 50.5 93.2858C49.1318 93.2858 47.7872 92.9291 46.5989 92.2508L44.8482 91.2324L42.6599 89.8857L41.8519 89.3597L40.1265 88.2108C35.4461 85.0442 31.0866 81.4274 27.1101 77.4123C19.6782 69.812 12.625 59.228 12.625 46.2916C12.625 36.2466 16.6154 26.6129 23.7183 19.51C30.8213 12.407 40.4549 8.41663 50.5 8.41663ZM50.5 16.8333C42.6872 16.8333 35.1943 19.9369 29.6698 25.4614C24.1453 30.9859 21.0417 38.4788 21.0417 46.2916C21.0417 56.0634 26.3947 64.64 33.1238 71.5248C36.0172 74.4538 39.1445 77.142 42.4747 79.5627L44.4021 80.9346C45.025 81.3695 45.6239 81.7735 46.1991 82.1466L47.8403 83.1987L49.2838 84.0783L50.5 84.7895L52.4148 83.6574L53.9593 82.6895C54.7813 82.1677 55.6608 81.5827 56.5979 80.9346L58.5253 79.5627C61.8555 77.142 64.9828 74.4538 67.8762 71.5248C74.6053 64.6442 79.9583 56.0634 79.9583 46.2916C79.9583 38.4788 76.8547 30.9859 71.3302 25.4614C65.8057 19.9369 58.3128 16.8333 50.5 16.8333ZM50.5 29.4583C54.9645 29.4583 59.2461 31.2318 62.403 34.3887C65.5598 37.5455 67.3333 41.8271 67.3333 46.2916C67.3333 50.7561 65.5598 55.0377 62.403 58.1946C59.2461 61.3515 54.9645 63.125 50.5 63.125C46.0355 63.125 41.7539 61.3515 38.597 58.1946C35.4402 55.0377 33.6667 50.7561 33.6667 46.2916C33.6667 41.8271 35.4402 37.5455 38.597 34.3887C41.7539 31.2318 46.0355 29.4583 50.5 29.4583ZM50.5 37.875C48.2678 37.875 46.127 38.7617 44.5485 40.3401C42.9701 41.9186 42.0833 44.0594 42.0833 46.2916C42.0833 48.5239 42.9701 50.6647 44.5485 52.2431C46.127 53.8215 48.2678 54.7083 50.5 54.7083C52.7322 54.7083 54.8731 53.8215 56.4515 52.2431C58.0299 50.6647 58.9167 48.5239 58.9167 46.2916C58.9167 44.0594 58.0299 41.9186 56.4515 40.3401C54.8731 38.7617 52.7322 37.875 50.5 37.875Z" fill="black"/>
</svg>
