<svg width="130" height="131" viewBox="0 0 130 131" fill="none" xmlns="http://www.w3.org/2000/svg">
<path d="M34.45 38.3179C38.09 38.3179 41.015 35.3704 41.015 31.7024C41.015 28.0344 38.09 25.0869 34.45 25.0869C30.81 25.0869 27.885 28.0344 27.885 31.7024C27.885 35.3704 30.81 38.3179 34.45 38.3179Z" fill="#FFFCFC"/>
<path fill-rule="evenodd" clip-rule="evenodd" d="M47.645 52.7279C47.645 45.6539 41.73 40.5449 34.45 40.5449C27.17 40.5449 21.255 45.6539 21.255 52.7279V56.0684C21.255 56.6579 21.515 57.2474 21.905 57.6404C22.295 58.0334 22.88 58.2954 23.465 58.2954H45.435C46.02 58.2954 46.605 58.0334 46.995 57.6404C47.385 57.2474 47.645 56.6579 47.645 56.0684V52.7279ZM21.125 72.0504C21.125 70.7475 21.6386 69.498 22.5529 68.5768C23.4671 67.6555 24.7071 67.1379 26 67.1379H71.5C72.7929 67.1379 74.0329 67.6555 74.9472 68.5768C75.8614 69.498 76.375 70.7475 76.375 72.0504C76.375 73.3533 75.8614 74.6028 74.9472 75.5241C74.0329 76.4454 72.7929 76.9629 71.5 76.9629H26C24.7071 76.9629 23.4671 76.4454 22.5529 75.5241C21.6386 74.6028 21.125 73.3533 21.125 72.0504ZM21.125 91.7004C21.125 90.3975 21.6386 89.148 22.5529 88.2268C23.4671 87.3055 24.7071 86.7879 26 86.7879H71.5C72.7929 86.7879 74.0329 87.3055 74.9472 88.2268C75.8614 89.148 76.375 90.3975 76.375 91.7004C76.375 93.0033 75.8614 94.2528 74.9472 95.1741C74.0329 96.0954 72.7929 96.6129 71.5 96.6129H26C24.7071 96.6129 23.4671 96.0954 22.5529 95.1741C21.6386 94.2528 21.125 93.0033 21.125 91.7004Z" fill="#FFFCFC"/>
<path fill-rule="evenodd" clip-rule="evenodd" d="M0 13.1C0 5.8819 5.837 0 13 0H56.485C60.138 0 63.583 1.5589 66.0075 4.13305L66.0465 4.1789L94.0745 34.977C96.408 37.4856 97.5 40.7672 97.5 43.885V111.35C97.5 118.568 91.663 124.45 84.5 124.45H13C5.837 124.45 0 118.568 0 111.35V13.1ZM56.4785 13.1H13V111.35H84.5V43.8326L56.576 13.1458L56.5565 13.1393L56.4785 13.1Z" fill="#FFFCFC"/>
<path fill-rule="evenodd" clip-rule="evenodd" d="M56.485 0C58.2089 0 59.8622 0.690087 61.0812 1.91845C62.3002 3.14681 62.985 4.81283 62.985 6.55V37.335H91C91.8536 37.335 92.6988 37.5044 93.4874 37.8336C94.276 38.1628 94.9926 38.6452 95.5962 39.2534C96.1998 39.8617 96.6786 40.5837 97.0052 41.3784C97.3319 42.1731 97.5 43.0248 97.5 43.885C97.5 44.7452 97.3319 45.5969 97.0052 46.3916C96.6786 47.1863 96.1998 47.9083 95.5962 48.5165C94.9926 49.1248 94.276 49.6072 93.4874 49.9364C92.6988 50.2656 91.8536 50.435 91 50.435H56.485C54.7611 50.435 53.1078 49.7449 51.8888 48.5165C50.6698 47.2882 49.985 45.6222 49.985 43.885V6.55C49.985 4.81283 50.6698 3.14681 51.8888 1.91845C53.1078 0.690087 54.7611 0 56.485 0Z" fill="#FFFCFC"/>
</svg>
