<svg width="16" height="16" viewBox="0 0 16 16" fill="none" xmlns="http://www.w3.org/2000/svg">
<path d="M14.5 10.75H3.5825C3.8325 10.2606 4.09375 9.74313 4.34562 9.215C5.29187 9.43688 6.47875 8.71125 7.87937 7.05312C8.10875 7.83437 8.6625 9.23 9.69687 9.25H9.71875C10.2631 9.25 10.8213 8.85938 11.4163 8.05875C11.6981 8.57125 12.4569 9.25 14.5 9.25C14.5663 9.25 14.6299 9.22366 14.6768 9.17678C14.7237 9.12989 14.75 9.0663 14.75 9C14.75 8.9337 14.7237 8.87011 14.6768 8.82322C14.6299 8.77634 14.5663 8.75 14.5 8.75C11.82 8.75 11.75 7.5475 11.75 7.5C11.7499 7.44616 11.7325 7.39379 11.7002 7.35067C11.668 7.30755 11.6227 7.27599 11.5711 7.26068C11.5195 7.24537 11.4643 7.24713 11.4138 7.2657C11.3632 7.28427 11.32 7.31866 11.2906 7.36375C10.5462 8.50625 10.0262 8.75 9.7175 8.75H9.70625C8.89375 8.73438 8.37562 7.0925 8.245 6.46187C8.23503 6.41597 8.21233 6.3738 8.1795 6.3402C8.14666 6.3066 8.10503 6.28293 8.05936 6.2719C8.0137 6.26088 7.96585 6.26294 7.9213 6.27786C7.87676 6.29278 7.83732 6.31995 7.8075 6.35625C6.49875 7.99812 5.36625 8.82812 4.57 8.74375C6.08187 5.46875 6.57437 3.3225 6.03062 2.36063C5.875 2.08188 5.54375 1.75 4.86937 1.75C4.00562 1.75 3.28375 2.65063 2.9375 4.15875C2.72068 5.11169 2.68801 6.09729 2.84125 7.0625C3.00625 8.01812 3.36562 8.69063 3.88437 9.02188C3.59812 9.62188 3.30312 10.2094 3.01937 10.7519H1.5C1.4337 10.7519 1.37011 10.7782 1.32322 10.8251C1.27634 10.872 1.25 10.9356 1.25 11.0019C1.25 11.0682 1.27634 11.1318 1.32322 11.1787C1.37011 11.2255 1.4337 11.2519 1.5 11.2519H2.75625C1.95187 12.7625 1.29562 13.8569 1.28562 13.8731C1.26871 13.9013 1.2575 13.9325 1.25265 13.965C1.2478 13.9974 1.2494 14.0306 1.25735 14.0624C1.2653 14.0943 1.27945 14.1243 1.29899 14.1507C1.31854 14.1771 1.34309 14.1993 1.37125 14.2163C1.41024 14.2391 1.45479 14.2508 1.5 14.25C1.54316 14.25 1.58559 14.2389 1.62315 14.2176C1.66072 14.1964 1.69215 14.1657 1.71437 14.1287C1.72437 14.1119 2.455 12.8944 3.32187 11.25H14.5C14.5663 11.25 14.6299 11.2237 14.6768 11.1768C14.7237 11.1299 14.75 11.0663 14.75 11C14.75 10.9337 14.7237 10.8701 14.6768 10.8232C14.6299 10.7763 14.5663 10.75 14.5 10.75ZM3.33375 6.97563C3.19282 6.07601 3.22443 5.15779 3.42687 4.27C3.65 3.29375 4.14625 2.25 4.86937 2.25C5.33937 2.25 5.50875 2.45375 5.595 2.60625C6.1875 3.65 4.995 6.625 4.1 8.5625C3.735 8.29313 3.46625 7.73938 3.33375 6.97563Z" fill="black"/>
</svg>
