<svg width="107" height="107" viewBox="0 0 107 107" fill="none" xmlns="http://www.w3.org/2000/svg">
<path d="M34.9043 72.0957C25.3162 62.4891 17.9426 50.9037 13.2992 38.15C10.7446 31.1772 13.0852 23.5177 18.3371 18.2658L21.5873 15.0202C22.461 14.1446 23.4989 13.45 24.6415 12.9761C25.784 12.5021 27.0088 12.2582 28.2458 12.2582C29.4827 12.2582 30.7075 12.5021 31.8501 12.9761C32.9927 13.45 34.0305 14.1446 34.9043 15.0202L42.5147 22.6305C43.3902 23.5043 44.0848 24.5422 44.5588 25.6847C45.0327 26.8273 45.2767 28.0521 45.2767 29.2891C45.2767 30.526 45.0327 31.7508 44.5588 32.8934C44.0848 34.0359 43.3902 35.0738 42.5147 35.9476L40.6422 37.8201C39.8927 38.5694 39.2981 39.4591 38.8925 40.4383C38.4868 41.4174 38.278 42.4669 38.278 43.5267C38.278 44.5866 38.4868 45.6361 38.8925 46.6152C39.2981 47.5944 39.8927 48.4841 40.6422 49.2334L57.7622 66.3579C58.5115 67.1074 59.4012 67.7019 60.3803 68.1076C61.3595 68.5132 62.409 68.722 63.4688 68.722C64.5287 68.722 65.5782 68.5132 66.5573 68.1076C67.5365 67.7019 68.4262 67.1074 69.1755 66.3579L71.0525 64.4854C71.9262 63.6098 72.9641 62.9152 74.1067 62.4413C75.2492 61.9673 76.474 61.7234 77.711 61.7234C78.9479 61.7234 80.1727 61.9673 81.3153 62.4413C82.4579 62.9152 83.4957 63.6098 84.3695 64.4854L91.9799 72.0957C92.8554 72.9695 93.55 74.0074 94.024 75.1499C94.4979 76.2925 94.7419 77.5173 94.7419 78.7543C94.7419 79.9912 94.4979 81.216 94.024 82.3586C93.55 83.5011 92.8554 84.539 91.9799 85.4128L88.7342 88.6585C83.4823 93.9148 75.8229 96.2555 68.85 93.7008C56.0963 89.0574 44.511 81.6838 34.9043 72.0957Z" stroke="black" stroke-width="1.5" stroke-linejoin="round"/>
</svg>
