<svg width="105" height="105" viewBox="0 0 105 105" fill="none" xmlns="http://www.w3.org/2000/svg">
<path d="M13.125 30.625C13.125 28.3044 14.0469 26.0788 15.6878 24.4378C17.3288 22.7969 19.5544 21.875 21.875 21.875H83.125C85.4456 21.875 87.6712 22.7969 89.3122 24.4378C90.9531 26.0788 91.875 28.3044 91.875 30.625V74.375C91.875 76.6956 90.9531 78.9212 89.3122 80.5622C87.6712 82.2031 85.4456 83.125 83.125 83.125H21.875C19.5544 83.125 17.3288 82.2031 15.6878 80.5622C14.0469 78.9212 13.125 76.6956 13.125 74.375V30.625Z" stroke="black" stroke-width="2" stroke-linecap="round" stroke-linejoin="round"/>
<path d="M13.125 30.625L52.5 56.875L91.875 30.625" stroke="black" stroke-width="2" stroke-linecap="round" stroke-linejoin="round"/>
</svg>
